<?xml version="1.0" encoding="utf-8"?>
<!-- Generator: Adobe Illustrator 18.1.0, SVG Export Plug-In . SVG Version: 6.00 Build 0)  -->
<svg version="1.1" id="Layer_1" xmlns="http://www.w3.org/2000/svg" xmlns:xlink="http://www.w3.org/1999/xlink" x="0px" y="0px"
	 viewBox="0 0 25 25" enable-background="new 0 0 25 25" xml:space="preserve">
<path fill="#FFFFFF" d="M3.9,18.1C5.4,19,7,19.7,9,19.7c5.8,0,10.5-4.6,10.5-10.2c0-0.3,0-0.8,0-0.8c0.9-0.5,1.7-1.7,1.7-1.7
	c-0.6,0.3-1.9,0.4-1.9,0.4c1.2-0.6,1.4-1.9,1.4-1.9c-0.7,0.6-2.3,0.8-2.3,0.8c-0.7-0.7-1.6-1.1-2.5-1.1c-2,0-3.6,1.6-3.6,3.6v0.8
	c0,0-4.7-0.1-7.4-3.8c0,0-1.7,2.6,1,4.8c0,0-1,0-1.5-0.4c0,0-0.2,2.5,2.7,3.6c0,0-0.6,0.1-1.4,0.1c0,0,0.6,2.3,3.3,2.4
	c0,0-1.2,1.5-4.6,1.7H3.9z"/>
</svg>
