<?xml version="1.0" encoding="utf-8"?>
<!-- Generator: Adobe Illustrator 18.1.1, SVG Export Plug-In . SVG Version: 6.00 Build 0)  -->
<svg version="1.1" id="Layer_1" xmlns="http://www.w3.org/2000/svg" xmlns:xlink="http://www.w3.org/1999/xlink" x="0px" y="0px"
	 viewBox="-255 347 100 100" enable-background="new -255 347 100 100" xml:space="preserve">
<g id="Captions">
</g>
<g id="Layer_7" display="none">
</g>
<g id="Your_Icon" display="none">
	<polygon display="inline" points="-230.4,372.6 -230.4,390.3 -217.4,390.3 -199.6,408.1 -199.6,354.8 -217.4,372.6 	"/>
	<path display="inline" d="M-190.8,369.7l-3.1,3.1c4.8,4.8,4.8,12.5,0,17.3l3.1,3.1C-184.3,386.7-184.3,376.2-190.8,369.7z"/>
	<path display="inline" d="M-184.5,363.4l-3.1,3.1c8.2,8.2,8.2,21.6,0,29.8l3.1,3.1C-174.6,389.5-174.6,373.3-184.5,363.4z"/>
</g>
<g id="Layer_6" display="none">
	<path display="inline" d="M-177.1,373.8h-3.4l-7.4-13.9h-31.6l-7.4,13.9h-3.4V395h5.3v8h7.1v-8h28.4v8h7.1v-8h5.3L-177.1,373.8
		L-177.1,373.8z M-216.3,365.2h25.2l4.6,8.6h-34.3L-216.3,365.2z M-221.5,388.8c-2.4,0-4.4-2-4.4-4.4s2-4.4,4.4-4.4
		c2.5,0,4.4,2,4.4,4.4S-219,388.8-221.5,388.8z M-186,388.8c-2.5,0-4.4-2-4.4-4.4s2-4.4,4.4-4.4c2.4,0,4.4,2,4.4,4.4
		S-183.5,388.8-186,388.8z"/>
</g>
<g id="Layer_5">
	<polygon points="-230.4,354.8 -177.1,381.4 -230.4,408.1 -216.1,381.4 	"/>
</g>
<g id="Layer_4" display="none">
	<polygon display="inline" points="-177.1,381.4 -203.8,354.7 -203.8,368.1 -230.4,368.1 -230.4,394.8 -203.8,394.8 -203.8,408.2 	
		"/>
</g>
</svg>
